<?xml version="1.0" encoding="UTF-8" standalone="no"?>
<svg width="526px" height="189px" viewBox="0 0 526 189" version="1.1" xmlns="http://www.w3.org/2000/svg" xmlns:xlink="http://www.w3.org/1999/xlink" xmlns:sketch="http://www.bohemiancoding.com/sketch/ns">
    <!-- Generator: Sketch 3.5.1 (25234) - http://www.bohemiancoding.com/sketch -->
    <title>Artboard 4</title>
    <desc>Created with Sketch.</desc>
    <defs>
        <radialGradient cx="52.0188065%" cy="57.0777087%" fx="52.0188065%" fy="57.0777087%" r="118.722669%" id="radialGradient-1">
            <stop stop-color="#F6F6F6" offset="0%"></stop>
            <stop stop-color="#E7E7E7" offset="100%"></stop>
        </radialGradient>
        <filter x="-50%" y="-50%" width="200%" height="200%" filterUnits="objectBoundingBox" id="filter-2">
            <feOffset dx="0" dy="1" in="SourceAlpha" result="shadowOffsetOuter1"></feOffset>
            <feGaussianBlur stdDeviation="0.5" in="shadowOffsetOuter1" result="shadowBlurOuter1"></feGaussianBlur>
            <feColorMatrix values="0 0 0 0 0   0 0 0 0 0   0 0 0 0 0  0 0 0 0.175 0" in="shadowBlurOuter1" type="matrix" result="shadowMatrixOuter1"></feColorMatrix>
            <feOffset dx="0" dy="5" in="SourceAlpha" result="shadowOffsetOuter2"></feOffset>
            <feGaussianBlur stdDeviation="3" in="shadowOffsetOuter2" result="shadowBlurOuter2"></feGaussianBlur>
            <feColorMatrix values="0 0 0 0 0   0 0 0 0 0   0 0 0 0 0  0 0 0 0.035 0" in="shadowBlurOuter2" type="matrix" result="shadowMatrixOuter2"></feColorMatrix>
            <feMerge>
                <feMergeNode in="shadowMatrixOuter1"></feMergeNode>
                <feMergeNode in="shadowMatrixOuter2"></feMergeNode>
                <feMergeNode in="SourceGraphic"></feMergeNode>
            </feMerge>
        </filter>
    </defs>
    <g id="Page-1" stroke="none" stroke-width="1" fill="none" fill-rule="evenodd" sketch:type="MSPage">
        <g id="Artboard-4" sketch:type="MSArtboardGroup" filter="url(#filter-2)" fill="url(#radialGradient-1)">
            <path d="M143.428311,56.588864 C146.372229,59.7627763 147.844166,64.109591 147.844166,69.6294385 C147.844166,71.6533826 147.75217,73.2173159 147.568175,74.3212854 L140.116419,126.89757 L122.728986,126.89757 L129.766756,77.3571864 C129.950751,75.5172372 130.042747,74.2752901 130.042747,73.6313079 C130.042747,70.8713842 129.51377,68.9624655 128.455799,67.9044948 C127.397828,66.846524 125.902892,66.3175466 123.970945,66.3175466 C118.635093,66.3175466 112.977334,72.3892877 106.997499,84.5329522 L100.925697,126.89757 L83.5382646,126.89757 L90.576035,77.3571864 C90.7600299,75.5172372 90.852026,74.2752901 90.852026,73.6313079 C90.852026,70.8713842 90.3230485,68.9624655 89.2650777,67.9044948 C88.207107,66.846524 86.7121707,66.3175466 84.7802241,66.3175466 C79.5363689,66.3175466 73.8786101,72.5272818 67.8067779,84.9469387 L62.010967,126.89757 L44.6235343,126.89757 L54.8352011,53.8979518 L69.8767103,53.8979518 L69.1867329,66.731533 C75.9945448,56.7958075 83.7682134,51.8280193 92.5079719,51.8280193 C96.6478576,51.8280193 100.189707,53.0699664 103.133625,55.5538977 C106.077544,58.0378291 107.871467,61.5336801 108.51545,66.0415556 C111.643363,61.5336801 115.185212,58.0378291 119.141103,55.5538977 C123.096994,53.0699664 127.236817,51.8280193 131.560698,51.8280193 C136.52856,51.8280193 140.484392,53.4149517 143.428311,56.588864 L143.428311,56.588864 L143.428311,56.588864 M222.548485,58.8657897 L215.234723,107.854191 C215.050728,109.510146 214.958732,110.522102 214.958732,110.890092 C214.958732,112.638044 215.280719,113.948988 215.924701,114.822964 C216.568683,115.69694 217.626638,116.455907 219.098597,117.09989 L214.130759,128.691511 C205.574996,127.771537 200.561209,123.723709 199.08925,116.547908 C193.017418,124.827679 185.795726,128.967502 177.423957,128.967502 C169.788168,128.967502 163.946417,126.414611 159.898529,121.308752 C155.850641,116.202893 153.826727,109.23419 153.826727,100.402434 C153.826727,92.8586429 155.229667,85.3609625 158.03559,77.9091683 C160.841512,70.4573742 165.280323,64.2476389 171.352155,59.2797762 C177.423987,54.3119134 185.10566,51.8280193 194.397403,51.8280193 C204.149134,51.8280193 213.532734,54.1739193 222.548485,58.8657897 L222.548485,58.8657897 L222.548485,58.8657897 M181.563822,70.2504182 C178.251913,73.8843178 175.837016,78.4381237 174.319058,83.9119725 C172.8011,89.3858213 172.042133,94.8825869 172.042133,100.402434 C172.042133,110.522155 175.491986,115.581939 182.391795,115.581939 C185.335714,115.581939 188.095596,114.592981 190.671525,112.615036 C193.247454,110.637091 195.91534,107.762213 198.675264,103.990317 L204.195084,66.731533 C202.447132,65.9955534 200.8372,65.4895749 199.365241,65.2135826 C197.893282,64.9375902 196.145356,64.7995961 194.121412,64.7995961 C189.061552,64.7995961 184.87573,66.6165186 181.563822,70.2504182 L181.563822,70.2504182 L181.563822,70.2504182 M295.596857,58.8657897 L286.075168,123.033696 C284.327216,135.177361 280.48638,143.916988 274.552544,149.252841 C268.618708,154.588693 260.408058,157.256579 249.920347,157.256579 C245.596467,157.256579 241.06566,156.566609 236.327791,155.186647 C231.589922,153.806685 227.335103,151.966764 223.563207,149.666827 L229.635009,137.385228 C232.670925,139.133179 235.913787,140.53612 239.363692,141.59409 C242.813596,142.652061 246.194452,143.181039 249.506361,143.181039 C254.658219,143.181039 258.936036,141.916093 262.339942,139.386162 C265.743848,136.856232 267.951754,131.957441 268.963726,124.689642 L270.06769,116.685903 C267.399764,119.813817 264.363893,122.297711 260.959987,124.13766 C257.556081,125.977609 254.014232,126.89757 250.334334,126.89757 C242.698545,126.89757 236.810796,124.390677 232.67091,119.376815 C228.531025,114.362954 226.461113,107.578243 226.461113,99.0224795 C226.461113,91.3866904 227.864053,83.9810061 230.669975,76.8052044 C233.475898,69.6294026 237.960707,63.6726565 244.124536,58.9347874 C250.288366,54.1969183 258.062035,51.8280193 267.445776,51.8280193 C277.197506,51.8280193 286.581106,54.1739193 295.596857,58.8657897 L295.596857,58.8657897 L295.596857,58.8657897 M254.474199,69.9054295 C251.070293,73.3093354 248.586399,77.5871531 247.022442,82.7390108 C245.458485,87.8908684 244.676518,93.226641 244.676518,98.7464885 C244.676518,103.898346 245.596479,107.647186 247.436428,109.993122 C249.276378,112.339057 251.80627,113.512007 255.026181,113.512007 C258.154094,113.512007 261.07497,112.477051 263.788895,110.407108 C266.50282,108.337165 269.193705,105.462288 271.861631,101.782389 L277.381451,66.731533 C275.6335,65.9955534 274.000569,65.4895749 272.482611,65.2135826 C270.964653,64.9375902 269.239727,64.7995961 267.30778,64.7995961 C262.155922,64.7995961 257.878105,66.5015235 254.474199,69.9054295 L254.474199,69.9054295 L254.474199,69.9054295 M423.927149,91.5707226 C415.417384,95.8026057 403.986871,98.6084861 389.635268,99.9884479 C389.91126,110.200166 394.60306,115.305948 403.710808,115.305948 C407.022717,115.305948 410.196582,114.776971 413.232498,113.719 C416.268414,112.661029 419.442278,110.936103 422.754187,108.544169 L429.515966,119.583809 C420.68421,125.839636 411.438604,128.967502 401.778871,128.967502 C392.027141,128.967502 384.575458,126.276617 379.423601,120.894766 C374.271743,115.512915 371.695853,108.084231 371.695853,98.608493 C371.695853,91.2486963 373.052795,84.0040051 375.76672,76.8742021 C378.480645,69.7443991 382.804461,63.787653 388.738297,59.0037852 C394.672133,54.2199174 402.23881,51.8280193 411.438556,51.8280193 C416.774409,51.8280193 421.351214,52.7019821 425.169108,54.4499338 C428.987003,56.1978855 431.86188,58.5437855 433.793827,61.4877041 C435.725773,64.4316228 436.691732,67.6514856 436.691732,71.147389 C436.691732,80.5311297 432.436914,87.3388395 423.927149,91.5707226 L423.927149,91.5707226 L423.927149,91.5707226 M411.783545,83.0150018 C416.429417,80.255078 418.752318,76.5752349 418.752318,71.975362 C418.752318,69.9514179 418.085346,68.1804934 416.751383,66.6625353 C415.41742,65.1445772 413.232513,64.3856096 410.196597,64.3856096 C404.492754,64.3856096 400.030944,66.6855115 396.811033,71.2853845 C393.591122,75.8852574 391.429215,81.6350123 390.325245,88.5348217 C399.984978,87.6148471 407.137673,85.7749255 411.783545,83.0150018 L411.783545,83.0150018 Z M462.337716,104.956286 C462.153722,105.87626 462.061725,107.072209 462.061725,108.544169 C462.061725,110.752108 462.544705,112.316041 463.510678,113.236016 C464.476651,114.15599 465.971588,114.615971 467.995532,114.615971 C470.847453,114.615971 473.929322,113.69601 477.24123,111.856061 L482.209068,123.723674 C476.597223,127.219577 470.433486,128.967502 463.717671,128.967502 C457.369847,128.875505 452.586051,127.265574 449.36614,124.13766 C446.146229,121.009746 444.536297,116.409943 444.536297,110.33811 C444.536297,108.590159 444.674291,106.750237 444.950284,104.81829 L450.332108,66.5935375 L439.016477,66.5935375 L440.810419,53.8979518 L452.816027,53.8979518 L457.369879,37.3384921 L471.997401,35.6825461 L469.375487,53.8979518 L486.210938,53.8979518 L482.623055,66.5935375 L467.719541,66.5935375 L462.337716,104.956286 Z M362.132367,103.470001 L366.16131,74.7352719 C366.437303,72.8953227 366.575297,71.2393933 366.575297,69.767434 C366.575297,64.155589 365.080361,59.7627763 362.090443,56.588864 C359.100526,53.4149517 354.983701,51.8280193 349.739846,51.8280193 C340.172111,51.8280193 331.800467,57.0257977 324.624666,67.4215105 L325.314643,53.8979518 L310.273134,53.8979518 L303.33867,103.470001 L320.696286,103.470001 L323.244711,85.0849342 C329.960525,72.5732799 336.400251,66.3175466 342.56408,66.3175466 C346.703966,66.3175466 348.773878,68.7554426 348.773878,73.6313079 C348.773878,74.2752901 348.681882,75.5172372 348.497887,77.3571864 L344.788267,103.470001 L362.132367,103.470001 Z M319.853513,109.550001 L317.4489,126.89757 L300.061467,126.89757 L302.488159,109.550001 L319.853513,109.550001 Z M361.27988,109.550001 L358.847549,126.89757 L341.460116,126.89757 L343.924534,109.550001 L361.27988,109.550001 L361.27988,109.550001 Z" id="magnet" sketch:type="MSShapeGroup"></path>
        </g>
    </g>
</svg>